<?xml version="1.0" encoding="utf-8"?>
<!-- Generator: Adobe Illustrator 25.2.1, SVG Export Plug-In . SVG Version: 6.00 Build 0)  -->
<svg version="1.1" id="Layer_1" xmlns="http://www.w3.org/2000/svg" xmlns:xlink="http://www.w3.org/1999/xlink" x="0px" y="0px"
	 viewBox="0 0 32.82 26.74" style="enable-background:new 0 0 32.82 26.74;" xml:space="preserve">
<style type="text/css">
	.st0{fill:#FFFFFF;stroke:#FFFFFF;stroke-width:0.75;stroke-miterlimit:10;}
</style>
<path class="st0" d="M31.85,6.36c-0.97,0-1.94,0-2.92,0l-0.37,1.25c0,0,0,0,0,0c-0.75,2.58-1.51,5.15-2.26,7.73l-0.83,2.85h0
	c-1.58,0-3.16,0-4.75,0h-1.02c-1.23,0-2.46,0-3.69,0H15c-1.66,0-3.33,0-4.99,0l0,0l-0.07-0.23c-0.41-1.4-0.83-2.81-1.24-4.21
	c-0.6-2.05-1.2-4.1-1.81-6.14c0,0,0.01,0,0.01,0L6.54,6.36c0,0-0.01,0-0.01,0C6.13,4.98,5.8,3.54,5.3,2.19
	C5.1,1.65,4.81,1.53,4.27,1.37C3.23,1.05,2.19,0.73,1.14,0.41c-0.77-0.24-1.1,0.97-0.33,1.21c1.11,0.34,2.21,0.68,3.32,1.02
	c1.82,6.17,3.63,12.35,5.45,18.52c0.1,0.35,0.21,0.71,0.31,1.06c-0.85,0.28-1.47,1.07-1.47,2.02c0,1.18,0.96,2.13,2.13,2.13
	c1.16,0,2.11-0.93,2.13-2.09c3.64,0,7.29,0,10.93,0c0.02,1.16,0.96,2.09,2.13,2.09c1.18,0,2.13-0.96,2.13-2.13s-0.96-2.13-2.13-2.13
	c-0.73,0-1.37,0.37-1.75,0.92c-3.89,0-7.79,0-11.68,0c-0.27-0.38-0.66-0.67-1.11-0.81c-0.27-0.92-0.54-1.84-0.81-2.77
	c5.19,0,10.37,0,15.56,0c0.28,0,0.53-0.19,0.6-0.46c1.11-3.79,2.22-7.58,3.33-11.38c0.66,0,1.32,0,1.98,0
	C32.65,7.61,32.65,6.36,31.85,6.36z"/>
</svg>
