<?xml version="1.0" encoding="utf-8"?>
<!-- Generator: Adobe Illustrator 25.2.1, SVG Export Plug-In . SVG Version: 6.00 Build 0)  -->
<svg version="1.1" id="Layer_1" xmlns="http://www.w3.org/2000/svg" xmlns:xlink="http://www.w3.org/1999/xlink" x="0px" y="0px"
	 viewBox="0 0 23.78 24.51" style="enable-background:new 0 0 23.78 24.51;" xml:space="preserve">
<style type="text/css">
	.st0{fill:#3E5902;}
</style>
<path class="st0" d="M18.49,17.52c-1.36-1.33-2.72-2.66-4.08-3.99c-0.19-0.18-0.37-0.37-0.56-0.55c0.61-0.82,0.97-1.83,0.97-2.93
	c0-2.71-2.21-4.92-4.92-4.92s-4.92,2.21-4.92,4.92s2.21,4.92,4.92,4.92c0.83,0,1.61-0.21,2.3-0.57c0.03,0.04,0.06,0.08,0.09,0.11
	c1.36,1.33,2.72,2.66,4.08,3.99c0.19,0.19,0.38,0.37,0.57,0.56c0.41,0.4,1.14,0.44,1.54,0C18.88,18.63,18.92,17.95,18.49,17.52z
	 M6.73,10.05c0-1.75,1.42-3.18,3.18-3.18s3.18,1.42,3.18,3.18s-1.42,3.18-3.18,3.18S6.73,11.8,6.73,10.05z"/>
</svg>
