<?xml version="1.0" encoding="utf-8"?>
<!-- Generator: Adobe Illustrator 25.2.1, SVG Export Plug-In . SVG Version: 6.00 Build 0)  -->
<svg version="1.1" id="Layer_1" xmlns="http://www.w3.org/2000/svg" xmlns:xlink="http://www.w3.org/1999/xlink" x="0px" y="0px"
	 viewBox="0 0 23.78 24.51" style="enable-background:new 0 0 23.78 24.51;" xml:space="preserve">
<style type="text/css">
	.st0{fill:#3E5902;}
</style>
<path class="st0" d="M19.22,18.11c-1.51-1.48-3.02-2.96-4.54-4.44c-0.21-0.2-0.42-0.41-0.62-0.61c0.68-0.91,1.08-2.03,1.08-3.25
	c0-3.02-2.45-5.47-5.47-5.47S4.21,6.79,4.21,9.81s2.45,5.47,5.47,5.47c0.92,0,1.79-0.23,2.56-0.64c0.03,0.04,0.06,0.09,0.1,0.12
	c1.51,1.48,3.02,2.96,4.54,4.44c0.21,0.21,0.42,0.41,0.64,0.62c0.45,0.44,1.27,0.49,1.71,0C19.66,19.34,19.71,18.58,19.22,18.11z
	 M6.15,9.81c0-1.95,1.58-3.53,3.53-3.53s3.53,1.58,3.53,3.53s-1.58,3.53-3.53,3.53S6.15,11.75,6.15,9.81z"/>
</svg>
